<?xml version="1.0" encoding="utf-8"?>
<!-- Generator: Adobe Illustrator 15.0.0, SVG Export Plug-In . SVG Version: 6.00 Build 0)  -->
<!DOCTYPE svg PUBLIC "-//W3C//DTD SVG 1.1//EN" "http://www.w3.org/Graphics/SVG/1.1/DTD/svg11.dtd">
<svg version="1.1"
	 id="svg2" xmlns:dc="http://purl.org/dc/elements/1.1/" xmlns:cc="http://creativecommons.org/ns#" xmlns:rdf="http://www.w3.org/1999/02/22-rdf-syntax-ns#" xmlns:svg="http://www.w3.org/2000/svg"
	 xmlns="http://www.w3.org/2000/svg" xmlns:xlink="http://www.w3.org/1999/xlink" x="0px" y="0px" width="409.922px"
	 height="494.817px" viewBox="0 0 409.922 494.817" enable-background="new 0 0 409.922 494.817" xml:space="preserve">
<path id="path18" fill="#8450E0" d="M275.518,270.475c-12.15,0-22.221-9.779-22.221-22.225c0-12.448,10.07-22.521,22.221-22.521
	c12.451,0,22.525,10.074,22.525,22.521C298.043,260.696,287.969,270.475,275.518,270.475L275.518,270.475z M275.518,352.112
	c-12.15,0-22.221-9.777-22.221-22.225c0-12.445,10.07-22.523,22.221-22.523c12.451,0,22.525,10.078,22.525,22.523
	C298.043,342.334,287.969,352.112,275.518,352.112z M204.814,229.596c-12.15,0-22.225-9.779-22.225-22.225
	c0-12.446,10.072-22.521,22.225-22.521c12.444,0,22.519,10.076,22.519,22.521C227.333,219.816,217.258,229.596,204.814,229.596z
	 M204.814,311.233c-12.15,0-22.225-9.779-22.225-22.227c0-12.443,10.072-22.521,22.225-22.521c12.444,0,22.519,10.074,22.519,22.521
	C227.333,301.454,217.258,311.233,204.814,311.233z M204.814,392.87c-12.15,0-22.225-9.779-22.225-22.223
	c0-12.445,10.072-22.521,22.225-22.521c12.444,0,22.519,10.076,22.519,22.521C227.333,383.09,217.258,392.87,204.814,392.87z
	 M134.123,270.475c-12.146,0-22.223-9.779-22.223-22.225c0-12.448,10.076-22.521,22.223-22.521
	c12.447,0,22.523,10.074,22.523,22.521C156.646,260.696,146.57,270.475,134.123,270.475z M134.123,352.112
	c-12.146,0-22.223-9.777-22.223-22.225c0-12.445,10.076-22.523,22.223-22.523c12.447,0,22.523,10.078,22.523,22.523
	C156.646,342.334,146.57,352.112,134.123,352.112z M349.893,143.93L204.962-0.998L60.031,143.93
	c-80.041,80.043-80.041,209.816,0,289.859h0.004c80.041,80.041,209.81,80.041,289.858,0l0,0
	C429.932,353.747,429.932,223.973,349.893,143.93"/>
</svg>
